# xmcd
#
# Track frame offsets:
#	150
#	20614
#	41185
#	66032
#	83664
#	114123
#	126427
#	145358
#	180925
#	199544
#
# Disc length: 3335 seconds
#
# Revision: 0
# Processed by: cddbd v1.5.2PL0 Copyright (c) Steve Scherf et al.
# Submitted via: EasyCDDAExtractor 5.0.4.1
#
DISCID=820d050a
DTITLE=Arne Hansen - Unterwegs
DYEAR=2006
DGENRE=Instrumental
TTITLE0=Am Anfang
TTITLE1=Mitternachtsfrühstück
TTITLE2=Anholt
TTITLE3=Für Lucy
TTITLE4=Die Stille
TTITLE5=Laufen
TTITLE6=Kein guter Platz zum Schlafen
TTITLE7=Ich gegen mich (feat. Anna Schildt)
TTITLE8=Sonntag
TTITLE9=Hoffnung
EXTD=
EXTT0=
EXTT1=
EXTT2=
EXTT3=
EXTT4=
EXTT5=
EXTT6=
EXTT7=
EXTT8=
EXTT9=
PLAYORDER=
